<!DOCTYPE svg PUBLIC "-//W3C//DTD SVG 1.1//EN" "http://www.w3.org/Graphics/SVG/1.1/DTD/svg11.dtd">
<!-- Uploaded to: SVG Repo, www.svgrepo.com, Transformed by: SVG Repo Mixer Tools -->
<svg fill="#ffffff" height="800px" width="800px" version="1.1" id="Layer_1" xmlns="http://www.w3.org/2000/svg" xmlns:xlink="http://www.w3.org/1999/xlink" viewBox="-15.36 -15.36 542.72 542.72" xml:space="preserve" stroke="#ffffff" stroke-width="0.00512">
<g id="SVGRepo_bgCarrier" stroke-width="0"/>
<g id="SVGRepo_tracerCarrier" stroke-linecap="round" stroke-linejoin="round"/>
<g id="SVGRepo_iconCarrier"> <g> <g> <g> <path d="M469.333,174.592V64c0-35.285-28.715-64-64-64H106.667c-35.285,0-64,28.715-64,64v110.592 C17.899,183.424,0,206.891,0,234.667v64h512v-64C512,206.891,494.101,183.424,469.333,174.592z M426.667,170.667h-44.437 C372.032,110.208,319.317,64,256,64s-116.032,46.208-126.229,106.667H85.333V64c0-11.755,9.557-21.333,21.333-21.333h298.667 c11.776,0,21.333,9.579,21.333,21.333V170.667z"/> <path d="M0,469.333C0,492.864,19.136,512,42.667,512h42.667C108.864,512,128,492.864,128,469.333V448h256v21.333 C384,492.864,403.136,512,426.667,512h42.667C492.864,512,512,492.864,512,469.333v-128H0V469.333z"/> </g> </g> </g> </g>
</svg>